<svg xmlns="http://www.w3.org/2000/svg" width="32" height="32" viewBox="0 0 32 32">
  <rect width="32" height="32" rx="6" fill="#5C6B52"/>
  <!-- Adult figure -->
  <circle cx="12" cy="9" r="2.5" fill="#FAF7F2"/>
  <path d="M12 12C9.5 12 8 14 8 16.5V20" stroke="#FAF7F2" stroke-width="1.8" stroke-linecap="round"/>
  <path d="M12 12C14.5 12 16 14 16 16.5V20" stroke="#FAF7F2" stroke-width="1.8" stroke-linecap="round"/>
  <path d="M12 15V20" stroke="#FAF7F2" stroke-width="1.8" stroke-linecap="round"/>
  <!-- Child figure -->
  <circle cx="21" cy="12" r="2" fill="#DAE4D0"/>
  <path d="M21 14.5C19.2 14.5 18 16 18 17.8V21" stroke="#DAE4D0" stroke-width="1.6" stroke-linecap="round"/>
  <path d="M21 14.5C22.8 14.5 24 16 24 17.8V21" stroke="#DAE4D0" stroke-width="1.6" stroke-linecap="round"/>
  <path d="M21 17V21" stroke="#DAE4D0" stroke-width="1.6" stroke-linecap="round"/>
  <!-- Connecting arc (holding hands) -->
  <path d="M16 19C17 17.5 18 17.5 18 19" stroke="#E8C4B0" stroke-width="1.2" stroke-linecap="round"/>
  <!-- Ground dots -->
  <circle cx="8" cy="24" r="1" fill="#DAE4D0" opacity="0.5"/>
  <circle cx="16" cy="25" r="1.2" fill="#DAE4D0" opacity="0.4"/>
  <circle cx="24" cy="24" r="0.8" fill="#DAE4D0" opacity="0.5"/>
</svg>
